<?xml version="1.0" standalone="no"?>
<!DOCTYPE svg PUBLIC "-//W3C//DTD SVG 20010904//EN"
 "http://www.w3.org/TR/2001/REC-SVG-20010904/DTD/svg10.dtd">
<svg version="1.0" xmlns="http://www.w3.org/2000/svg"
 width="502.000000pt" height="502.000000pt" viewBox="0 0 502.000000 502.000000"
 preserveAspectRatio="xMidYMid meet">
<metadata>
Created by potrace 1.14, written by Peter Selinger 2001-2017
</metadata>
<g transform="translate(0.000000,502.000000) scale(0.100000,-0.100000)"
fill="#000000" stroke="none">
<path d="M1420 4930 l0 -80 -90 0 -90 0 0 -100 0 -100 -100 0 -100 0 0 -190 0
-190 100 0 100 0 0 -100 0 -100 -100 0 -100 0 0 -290 0 -290 100 0 100 0 0
-95 0 -95 90 0 90 0 0 95 0 95 90 0 90 0 0 -200 0 -200 -90 0 -90 0 0 -90 0
-90 -90 0 -90 0 0 -95 0 -95 -100 0 -100 0 0 -100 0 -100 100 0 100 0 0 -95 0
-95 -100 0 -100 0 0 -290 0 -290 -90 0 -90 0 0 -195 0 -195 95 0 95 0 0 -105
0 -105 280 0 280 0 0 105 0 105 175 0 175 0 0 -485 0 -485 -95 0 -95 0 0 -95
0 -95 100 0 100 0 0 -100 0 -100 550 0 550 0 0 100 0 100 90 0 90 0 0 485 0
485 -90 0 -90 0 0 95 0 95 365 0 365 0 0 100 0 100 90 0 90 0 0 385 0 385 100
0 100 0 0 195 0 195 -100 0 -100 0 0 95 0 95 -90 0 -90 0 0 195 0 195 90 0 90
0 0 195 0 195 100 0 100 0 0 95 0 95 -100 0 -100 0 0 195 0 195 100 0 100 0 0
95 0 95 -100 0 -100 0 0 90 0 90 -90 0 -90 0 0 105 0 105 -90 0 -90 0 0 80 0
80 -735 0 -735 0 0 -80 0 -80 -90 0 -90 0 0 80 0 80 -90 0 -90 0 0 -80 0 -80
-95 0 -95 0 0 80 0 80 -90 0 -90 0 0 -80z"/>
</g>
</svg>
